<svg data-v-423bf9ae="" xmlns="http://www.w3.org/2000/svg" viewBox="0 0 195.00924214417748 60" class="font"><!----><!----><!----><g data-v-423bf9ae="" id="b5c29be7-b317-4c12-9e1e-75ca23cd4ff0" fill="black" transform="matrix(4.731977939605713,0,0,4.731977939605713,-3.271719217300415,-3.3086884021759033)"><path d="M2.53 10.50L2.53 6.87L7.45 6.87L7.45 5.17L2.53 5.17L2.53 2.49L7.73 2.49L7.73 0.71L0.69 0.71L0.69 10.50ZM10.77 6.26L13.59 6.26C14.35 6.26 15.43 6.72 15.43 7.60C15.43 8.53 14.35 8.78 13.59 8.78L10.77 8.78ZM10.77 2.38L13.59 2.38C14.77 2.38 15.13 3.14 15.13 3.58C15.13 4.14 14.76 4.63 13.59 4.63L10.77 4.63ZM13.59 0.70C12.04 0.70 10.49 0.70 8.95 0.70L8.95 10.50C10.50 10.50 12.04 10.50 13.59 10.50C15.62 10.50 17.26 9.80 17.26 7.62C17.26 7 16.84 5.78 15.69 5.43C16.60 5.03 16.97 4.30 16.97 3.54C16.97 1.57 15.53 0.70 13.59 0.70ZM25.87 8.68L20.37 8.68L20.37 6.47L25.68 6.47L25.68 4.75L20.37 4.75L20.37 2.49L25.87 2.49L25.87 0.70L18.54 0.70C18.54 3.96 18.54 7.24 18.54 10.50L25.87 10.50ZM32.24 3.60L30.98 6.62L30.27 8.53L29.61 6.58L28.56 3.60L26.57 3.60L29.33 10.39L28.04 13.38L29.92 13.38L34.13 3.60ZM41.87 7.66C42.14 4.82 40.70 3.39 38.39 3.39C36.15 3.39 34.72 4.90 34.72 7C34.72 9.21 36.13 10.68 38.51 10.68C39.56 10.68 40.75 10.32 41.48 9.56L40.39 8.48C40.00 8.89 39.17 9.13 38.54 9.13C37.34 9.13 36.60 8.51 36.48 7.66ZM36.51 6.24C36.76 5.35 37.52 4.90 38.44 4.90C39.42 4.90 40.12 5.35 40.24 6.24Z"></path></g><!----><!----></svg>