<svg data-v-fde0c5aa="" xmlns="http://www.w3.org/2000/svg" viewBox="0 0 300 300" class="iconAbove"><!----><defs data-v-fde0c5aa=""><linearGradient data-v-fde0c5aa="" gradientTransform="rotate(25)" id="968b9d75-0572-4923-b944-2b65887c48d0" x1="0%" y1="0%" x2="100%" y2="0%"><stop data-v-fde0c5aa="" offset="0%" stop-color="#410FF8" stop-opacity="1"></stop><stop data-v-fde0c5aa="" offset="100%" stop-color="#410FF8" stop-opacity="1"></stop></linearGradient></defs><rect data-v-fde0c5aa="" fill="url(#968b9d75-0572-4923-b944-2b65887c48d0)" x="0" y="0" width="300px" height="300px" class="logo-background-square"></rect><defs data-v-fde0c5aa=""><!----></defs><g data-v-fde0c5aa="" id="a9235e47-f775-4c28-9c26-cca1ad9b4df3" fill="#ffffff" transform="matrix(5.310330867767334,0,0,5.310330867767334,36.906551653316896,188.95358389813106)"><path d="M2.53 10.50L2.53 6.87L7.45 6.87L7.45 5.17L2.53 5.17L2.53 2.49L7.73 2.49L7.73 0.71L0.69 0.71L0.69 10.50ZM10.77 6.26L13.59 6.26C14.35 6.26 15.43 6.72 15.43 7.60C15.43 8.53 14.35 8.78 13.59 8.78L10.77 8.78ZM10.77 2.38L13.59 2.38C14.77 2.38 15.13 3.14 15.13 3.58C15.13 4.14 14.76 4.63 13.59 4.63L10.77 4.63ZM13.59 0.70C12.04 0.70 10.49 0.70 8.95 0.70L8.95 10.50C10.50 10.50 12.04 10.50 13.59 10.50C15.62 10.50 17.26 9.80 17.26 7.62C17.26 7 16.84 5.78 15.69 5.43C16.60 5.03 16.97 4.30 16.97 3.54C16.97 1.57 15.53 0.70 13.59 0.70ZM25.87 8.68L20.37 8.68L20.37 6.47L25.68 6.47L25.68 4.75L20.37 4.75L20.37 2.49L25.87 2.49L25.87 0.70L18.54 0.70C18.54 3.96 18.54 7.24 18.54 10.50L25.87 10.50ZM32.24 3.60L30.98 6.62L30.27 8.53L29.61 6.58L28.56 3.60L26.57 3.60L29.33 10.39L28.04 13.38L29.92 13.38L34.13 3.60ZM41.87 7.66C42.14 4.82 40.70 3.39 38.39 3.39C36.15 3.39 34.72 4.90 34.72 7C34.72 9.21 36.13 10.68 38.51 10.68C39.56 10.68 40.75 10.32 41.48 9.56L40.39 8.48C40.00 8.89 39.17 9.13 38.54 9.13C37.34 9.13 36.60 8.51 36.48 7.66ZM36.51 6.24C36.76 5.35 37.52 4.90 38.44 4.90C39.42 4.90 40.12 5.35 40.24 6.24Z"></path></g><defs data-v-fde0c5aa=""><!----></defs><g data-v-fde0c5aa="" id="81467661-1fb4-4cc0-9bc5-ae577aa47cfe" stroke="none" fill="#ffffff" transform="matrix(2.3821632862091064,0,0,2.3821632862091064,30.887184448129716,39.999999999999986)"><path d="M99.995 28.08c-.002-.042-.006-.082-.009-.123l-.005-.062c-.003-.03-.008-.06-.012-.089a1.735 1.735 0 0 0-.016-.117 3.745 3.745 0 0 0-1.045-2.056c-3.19-3.781-6.985-7.146-10.844-10.219C79.753 8.792 70.248 3.252 59.756 1.022 53.692-.266 47.59-.321 41.494.769c-5.545.992-10.889 3.054-15.891 5.61-7.829 4-14.979 9.515-21.209 15.698-1.153 1.144-2.3 2.312-3.348 3.555-1.396 1.654-1.396 3.613 0 5.267 3.19 3.781 6.985 7.145 10.844 10.219 8.312 6.622 17.817 12.161 28.309 14.391 6.064 1.289 12.167 1.344 18.263.254 5.544-.992 10.888-3.054 15.891-5.61 7.829-4.001 14.979-9.515 21.209-15.698 1.153-1.145 2.3-2.312 3.348-3.555a3.748 3.748 0 0 0 1.061-2.174c.004-.029.009-.059.012-.089l.005-.062c.003-.04.007-.08.009-.122.003-.062.005-.124.005-.187s-.004-.124-.007-.186zM50 47.507c-10.627 0-19.241-8.614-19.241-19.241C30.759 17.64 39.373 9.025 50 9.025s19.241 8.614 19.241 19.241c0 10.627-8.614 19.241-19.241 19.241z"></path><circle cx="50" cy="28.266" r="6.369"></circle></g><!----></svg>